<svg width="200" height="21" viewBox="0 0 200 21" fill="none" xmlns="http://www.w3.org/2000/svg">
<g id="NFT Marketplace">
<path d="M7.77309 14.5476H8.16909V0.599609H11.0731V15.9996H5.39709L3.59309 2.05161H3.19709V15.9996H0.293091V0.599609H5.96909L7.77309 14.5476Z" fill="white"/>
<path d="M14.3578 0.599609H24.2138V3.37161H17.2618V6.89161H24.0818V9.66361H17.2618V15.9996H14.3578V0.599609Z" fill="white"/>
<path d="M27.0805 0.599609H38.1685V3.37161H34.0765V15.9996H31.1725V3.37161H27.0805V0.599609Z" fill="white"/>
<path d="M53.3179 0.599609H58.4219L59.3019 12.1716V14.4156H59.8299V12.1716L60.7099 0.599609H65.8139V15.9996H63.1739V5.70361L63.4379 2.18361H62.9099L61.7659 15.9996H57.4099L56.2219 2.18361H55.6939L55.9579 5.70361V15.9996H53.3179V0.599609Z" fill="white"/>
<path d="M75.0826 14.4156C74.7893 15.1049 74.3786 15.5963 73.8506 15.8896C73.3226 16.1683 72.7066 16.3076 72.0026 16.3076C71.3426 16.3076 70.7193 16.1829 70.1326 15.9336C69.5606 15.6843 69.0546 15.3176 68.6146 14.8336C68.1746 14.3496 67.8226 13.7629 67.5586 13.0736C67.3093 12.3843 67.1846 11.5996 67.1846 10.7196V10.3676C67.1846 9.50228 67.3093 8.72494 67.5586 8.03561C67.8079 7.34628 68.1453 6.75961 68.5706 6.27561C68.9959 5.79161 69.4873 5.42494 70.0446 5.17561C70.6166 4.91161 71.2253 4.77961 71.8706 4.77961C72.6479 4.77961 73.2713 4.91161 73.7406 5.17561C74.2246 5.43961 74.6059 5.85028 74.8846 6.40761H75.2806V5.08761H78.0526V12.6996C78.0526 13.1396 78.2506 13.3596 78.6466 13.3596H79.0646V15.9996H77.1726C76.6739 15.9996 76.2633 15.8529 75.9406 15.5596C75.6326 15.2663 75.4786 14.8849 75.4786 14.4156H75.0826ZM72.6186 13.6676C73.4253 13.6676 74.0706 13.4036 74.5546 12.8756C75.0386 12.3329 75.2806 11.5996 75.2806 10.6756V10.4116C75.2806 9.48761 75.0386 8.76161 74.5546 8.23361C74.0706 7.69094 73.4253 7.41961 72.6186 7.41961C71.8119 7.41961 71.1666 7.69094 70.6826 8.23361C70.1986 8.76161 69.9566 9.48761 69.9566 10.4116V10.6756C69.9566 11.5996 70.1986 12.3329 70.6826 12.8756C71.1666 13.4036 71.8119 13.6676 72.6186 13.6676Z" fill="white"/>
<path d="M80.9633 5.08761H85.5833V6.67161H85.9793C86.1846 6.07028 86.5293 5.60828 87.0133 5.28561C87.512 4.94828 88.106 4.77961 88.7953 4.77961C89.8806 4.77961 90.7533 5.12428 91.4133 5.81361C92.0733 6.48828 92.4033 7.52228 92.4033 8.91561V9.39961L89.5433 9.66361V9.35561C89.5433 8.75428 89.3893 8.27761 89.0813 7.92561C88.7733 7.55894 88.3113 7.37561 87.6953 7.37561C87.0793 7.37561 86.5953 7.58828 86.2433 8.01361C85.8913 8.43894 85.7153 9.04761 85.7153 9.83961V13.3596H88.2233V15.9996H80.6993V13.3596H82.9433V7.72761H80.9633V5.08761Z" fill="white"/>
<path d="M98.614 9.09161H99.142L102.046 5.08761H105.082V5.21961L101.562 10.2136V10.6096L105.434 15.8676V15.9996H102.266L99.142 11.7316H98.614V15.9996H95.842V0.599609H98.614V9.09161Z" fill="white"/>
<path d="M110.875 11.4456C110.889 11.7683 110.963 12.0689 111.095 12.3476C111.241 12.6116 111.432 12.8463 111.667 13.0516C111.916 13.2423 112.195 13.3963 112.503 13.5136C112.825 13.6163 113.163 13.6676 113.515 13.6676C114.204 13.6676 114.732 13.5503 115.099 13.3156C115.465 13.0663 115.729 12.7729 115.891 12.4356L118.267 13.7556C118.135 14.0343 117.951 14.3276 117.717 14.6356C117.482 14.9289 117.174 15.2003 116.793 15.4496C116.426 15.6989 115.971 15.9043 115.429 16.0656C114.901 16.2269 114.277 16.3076 113.559 16.3076C112.737 16.3076 111.989 16.1756 111.315 15.9116C110.64 15.6476 110.053 15.2663 109.555 14.7676C109.071 14.2689 108.689 13.6603 108.411 12.9416C108.147 12.2229 108.015 11.4089 108.015 10.4996V10.3676C108.015 9.53161 108.154 8.76894 108.433 8.07961C108.726 7.39028 109.122 6.80361 109.621 6.31961C110.119 5.83561 110.699 5.46161 111.359 5.19761C112.033 4.91894 112.752 4.77961 113.515 4.77961C114.453 4.77961 115.26 4.94828 115.935 5.28561C116.609 5.60828 117.167 6.02628 117.607 6.53961C118.047 7.03828 118.369 7.59561 118.575 8.21161C118.78 8.81294 118.883 9.39961 118.883 9.97161V11.4456H110.875ZM113.493 7.28761C112.789 7.28761 112.217 7.47094 111.777 7.83761C111.337 8.18961 111.051 8.60028 110.919 9.06961H116.067C115.979 8.55628 115.7 8.13094 115.231 7.79361C114.776 7.45628 114.197 7.28761 113.493 7.28761Z" fill="white"/>
<path d="M121.595 5.08761H124.829V0.599609H127.601V5.08761H131.539V7.72761H127.601V12.6996C127.601 13.1396 127.799 13.3596 128.195 13.3596H131.143V15.9996H126.523C126.025 15.9996 125.614 15.8383 125.291 15.5156C124.983 15.1929 124.829 14.7823 124.829 14.2836V7.72761H121.595V5.08761Z" fill="white"/>
<path d="M137.574 20.3996H134.802V5.08761H137.574V6.67161H137.97C138.263 6.07028 138.689 5.60828 139.246 5.28561C139.803 4.94828 140.515 4.77961 141.38 4.77961C142.025 4.77961 142.634 4.90428 143.206 5.15361C143.793 5.40294 144.299 5.76961 144.724 6.25361C145.164 6.72294 145.509 7.30228 145.758 7.99161C146.022 8.68094 146.154 9.46561 146.154 10.3456V10.7416C146.154 11.6363 146.029 12.4283 145.78 13.1176C145.531 13.8069 145.193 14.3936 144.768 14.8776C144.343 15.3469 143.837 15.7063 143.25 15.9556C142.678 16.1903 142.055 16.3076 141.38 16.3076C140.881 16.3076 140.449 16.2563 140.082 16.1536C139.715 16.0509 139.393 15.9116 139.114 15.7356C138.85 15.5596 138.623 15.3616 138.432 15.1416C138.256 14.9069 138.102 14.6649 137.97 14.4156H137.574V20.3996ZM140.478 13.6676C141.343 13.6676 142.04 13.4036 142.568 12.8756C143.111 12.3329 143.382 11.5996 143.382 10.6756V10.4116C143.382 9.48761 143.111 8.76161 142.568 8.23361C142.04 7.69094 141.343 7.41961 140.478 7.41961C139.613 7.41961 138.909 7.69828 138.366 8.25561C137.838 8.79828 137.574 9.51694 137.574 10.4116V10.6756C137.574 11.5703 137.838 12.2963 138.366 12.8536C138.909 13.3963 139.613 13.6676 140.478 13.6676Z" fill="white"/>
<path d="M148.779 13.3596H152.607V3.23961H148.911V0.599609H155.379V13.3596H158.943V15.9996H148.779V13.3596Z" fill="white"/>
<path d="M169.378 14.4156C169.084 15.1049 168.674 15.5963 168.146 15.8896C167.618 16.1683 167.002 16.3076 166.298 16.3076C165.638 16.3076 165.014 16.1829 164.428 15.9336C163.856 15.6843 163.35 15.3176 162.91 14.8336C162.47 14.3496 162.118 13.7629 161.854 13.0736C161.604 12.3843 161.48 11.5996 161.48 10.7196V10.3676C161.48 9.50228 161.604 8.72494 161.854 8.03561C162.103 7.34628 162.44 6.75961 162.866 6.27561C163.291 5.79161 163.782 5.42494 164.34 5.17561C164.912 4.91161 165.52 4.77961 166.166 4.77961C166.943 4.77961 167.566 4.91161 168.036 5.17561C168.52 5.43961 168.901 5.85028 169.18 6.40761H169.576V5.08761H172.348V12.6996C172.348 13.1396 172.546 13.3596 172.942 13.3596H173.36V15.9996H171.468C170.969 15.9996 170.558 15.8529 170.236 15.5596C169.928 15.2663 169.774 14.8849 169.774 14.4156H169.378ZM166.914 13.6676C167.72 13.6676 168.366 13.4036 168.85 12.8756C169.334 12.3329 169.576 11.5996 169.576 10.6756V10.4116C169.576 9.48761 169.334 8.76161 168.85 8.23361C168.366 7.69094 167.72 7.41961 166.914 7.41961C166.107 7.41961 165.462 7.69094 164.978 8.23361C164.494 8.76161 164.252 9.48761 164.252 10.4116V10.6756C164.252 11.5996 164.494 12.3329 164.978 12.8756C165.462 13.4036 166.107 13.6676 166.914 13.6676Z" fill="white"/>
<path d="M186.434 11.9956C186.185 13.2863 185.591 14.3276 184.652 15.1196C183.728 15.9116 182.489 16.3076 180.934 16.3076C180.128 16.3076 179.372 16.1829 178.668 15.9336C177.979 15.6843 177.378 15.3249 176.864 14.8556C176.351 14.3863 175.948 13.8069 175.654 13.1176C175.361 12.4283 175.214 11.6436 175.214 10.7636V10.4996C175.214 9.61961 175.361 8.82761 175.654 8.12361C175.948 7.41961 176.351 6.81828 176.864 6.31961C177.392 5.82094 178.001 5.43961 178.69 5.17561C179.394 4.91161 180.142 4.77961 180.934 4.77961C182.46 4.77961 183.692 5.17561 184.63 5.96761C185.584 6.75961 186.185 7.80094 186.434 9.09161L183.706 9.79561C183.618 9.15028 183.34 8.59295 182.87 8.12361C182.401 7.65428 181.741 7.41961 180.89 7.41961C180.494 7.41961 180.12 7.49294 179.768 7.63961C179.416 7.78628 179.108 7.99894 178.844 8.27761C178.58 8.54161 178.368 8.87161 178.206 9.26761C178.06 9.64894 177.986 10.0816 177.986 10.5656V10.6976C177.986 11.1816 178.06 11.6143 178.206 11.9956C178.368 12.3623 178.58 12.6703 178.844 12.9196C179.108 13.1689 179.416 13.3596 179.768 13.4916C180.12 13.6089 180.494 13.6676 180.89 13.6676C181.741 13.6676 182.386 13.4549 182.826 13.0296C183.281 12.6043 183.574 12.0323 183.706 11.3136L186.434 11.9956Z" fill="white"/>
<path d="M191.699 11.4456C191.714 11.7683 191.787 12.0689 191.919 12.3476C192.066 12.6116 192.256 12.8463 192.491 13.0516C192.74 13.2423 193.019 13.3963 193.327 13.5136C193.65 13.6163 193.987 13.6676 194.339 13.6676C195.028 13.6676 195.556 13.5503 195.923 13.3156C196.29 13.0663 196.554 12.7729 196.715 12.4356L199.091 13.7556C198.959 14.0343 198.776 14.3276 198.541 14.6356C198.306 14.9289 197.998 15.2003 197.617 15.4496C197.25 15.6989 196.796 15.9043 196.253 16.0656C195.725 16.2269 195.102 16.3076 194.383 16.3076C193.562 16.3076 192.814 16.1756 192.139 15.9116C191.464 15.6476 190.878 15.2663 190.379 14.7676C189.895 14.2689 189.514 13.6603 189.235 12.9416C188.971 12.2229 188.839 11.4089 188.839 10.4996V10.3676C188.839 9.53161 188.978 8.76894 189.257 8.07961C189.55 7.39028 189.946 6.80361 190.445 6.31961C190.944 5.83561 191.523 5.46161 192.183 5.19761C192.858 4.91894 193.576 4.77961 194.339 4.77961C195.278 4.77961 196.084 4.94828 196.759 5.28561C197.434 5.60828 197.991 6.02628 198.431 6.53961C198.871 7.03828 199.194 7.59561 199.399 8.21161C199.604 8.81294 199.707 9.39961 199.707 9.97161V11.4456H191.699ZM194.317 7.28761C193.613 7.28761 193.041 7.47094 192.601 7.83761C192.161 8.18961 191.875 8.60028 191.743 9.06961H196.891C196.803 8.55628 196.524 8.13094 196.055 7.79361C195.6 7.45628 195.021 7.28761 194.317 7.28761Z" fill="white"/>
</g>
</svg>
